<?xml version="1.0" encoding="utf-8" ?>
<svg xmlns="http://www.w3.org/2000/svg" xmlns:xlink="http://www.w3.org/1999/xlink" width="1024" height="1024">
	<path fill="#F19C79" d="M0 0L1024 0L1024 1024L0 1024L0 0Z"/>
	<path fill="#FFA69E" d="M832.505 409.911C837.71 411.729 842.502 414.554 847.683 416.385C850.563 417.403 855.877 417.578 857.874 419.72C857.007 420.326 852.387 419.771 851.016 419.841C851.7 420.954 852.098 421.06 853.203 421.708C855.873 422.745 860.957 424.143 862.335 426.859C862.711 427.6 862.738 428.062 862.516 428.818C860.106 427.619 857.632 426.626 855.137 425.625C854.401 424.354 853.587 423.559 852.513 422.596C845.24 420.501 838.263 414.616 832.505 409.911Z"/>
	<path fill="#FFA69E" d="M871.629 394.59C875.168 394.332 878.364 394.024 881.736 395.437C884.575 396.627 886.851 398.815 887.876 401.748C888.993 404.947 888.548 408.405 887.009 411.383C884.506 416.226 880.047 418.868 875.028 420.472C871.846 421.179 867.708 421.557 864.565 420.487C862.29 419.713 860.41 418.288 859.405 416.063C857.83 412.578 858.558 408.289 860.06 404.911C862.437 399.567 866.349 396.649 871.629 394.59Z"/>
	<path fill="#FFA69E" d="M837.499 374.582C840.16 374.306 842.82 374.012 845.386 374.95C848.161 375.964 850.364 377.818 851.469 380.597C853.083 384.657 852.309 390.021 850.415 393.856C847.039 400.694 840.575 403.189 833.781 405.36L828.788 406.091L828.147 405.728C824.316 403.523 820.901 400.848 819.849 396.303C818.947 392.408 820.331 388.271 822.371 384.964C825.883 379.272 831.159 376.165 837.499 374.582Z"/>
	<path fill="#3C6169" d="M260.145 743.914L262.902 744.704C257.735 752.29 254.939 763.252 251.913 771.899C252.05 772.02 252.185 772.144 252.323 772.263C256.565 775.912 262.188 777.336 266.513 780.803C276.458 788.777 278.291 803.92 283.461 814.983C271.603 810.009 258.206 805.972 252.971 792.906C250.958 787.881 250.466 782.356 249.716 777.034C247.848 784.937 245.085 793.071 244.163 801.12C248.855 808.95 252.375 816.385 250.048 825.799C248.112 833.627 242.076 840.382 236.39 845.806C232.75 834.128 228.158 821.536 234.047 809.701C235.472 806.837 238.492 804.823 239.693 801.92C241.61 797.287 241.985 791.665 242.995 786.76C243.817 782.769 245.052 778.91 246.34 775.051C243.001 778.686 240.252 782.645 237.092 786.401C229.987 794.846 220.477 796.526 210.187 798.144C210.893 791.281 212.063 786.126 215.491 780.115C220.527 776.496 225.932 773.087 231.388 770.145C235.051 767.033 238.946 764.289 242.508 761.029C247.367 756.582 252.315 750.363 257.837 746.9L260.145 743.914Z"/>
	<path fill="#F19C79" d="M231.388 770.145C235.051 767.033 238.946 764.289 242.508 761.029C247.367 756.582 252.315 750.363 257.837 746.9C254.708 754.208 252.134 762.482 248.166 769.339C242.679 770.33 236.948 770.008 231.388 770.145Z"/>
	<path fill="#D4E09B" d="M472.602 623.894C500.341 636.509 543.196 674.568 559.777 700.036C539.429 707.262 516.403 712.41 494.702 712.058C487.187 711.935 479.788 710.614 472.32 710.386L472.602 623.894Z"/>
	<path fill="#F6F4D2" d="M472.656 665.66C489.23 673.191 506.392 679.538 523.418 685.962C529.019 688.076 539.23 690.827 543.912 693.614C539.31 694.554 479.621 673.316 473.454 670.091C472.547 668.842 472.721 667.147 472.656 665.66Z"/>
	<path fill="#88A24E" d="M83.0946 454.16L82.3869 452.895C85.8657 450.525 122.821 454.92 129.743 456.236C170.873 464.058 209.646 484.086 233.56 519.467C237.996 526.03 241.69 532.941 245.176 540.041C246.668 544.48 248.201 548.907 249.441 553.425C248.068 553.761 246.638 553.659 245.234 553.651C236.98 553.264 228.582 553.848 220.774 556.747C195.974 518.817 147.761 487.158 108.27 466.559C99.9867 462.238 91.6847 457.845 83.0946 454.16Z"/>
	<path fill="#F6F4D2" d="M723.02 279.599C725.383 279.461 727.836 279.433 730.167 279.886C741.208 282.036 744.562 293.885 749.993 302.14Q752.842 302.874 755.676 303.661C761.703 305.343 767.892 307.586 771.025 313.471C773.001 317.184 773.506 322.259 772.262 326.279C770.015 333.546 761.944 335.699 755.933 338.758C754.84 339.314 753.143 340.216 752.403 341.235C751.174 342.928 751.914 352.951 750.807 356.22C749.441 360.255 746.585 364.055 742.699 365.941C737.351 368.537 731.276 367.578 725.87 365.786C722.588 364.419 718.742 362.407 715.208 362.024C706.975 361.13 700.395 366.902 691.969 362.163C688.844 360.406 686.923 357.345 686.082 353.912C684.441 347.21 687.283 341.835 690.528 336.236C687.243 329.418 681.085 325.411 679.162 317.637C678.231 313.874 678.688 310.01 680.746 306.694C685.389 299.214 694.793 297.626 702.658 295.641C709.566 288.53 712.08 281.773 723.02 279.599Z"/>
	<path fill="#3C6169" d="M721.525 314.557C723.551 314.506 725.485 314.391 727.365 315.263C729.784 316.385 731.768 318.41 732.66 320.944C733.549 323.472 733.412 326.158 732.196 328.555C730.834 331.241 728.567 332.23 725.862 333.192C723.839 333.221 721.869 333.277 719.956 332.52Q719.512 332.343 719.087 332.122Q718.663 331.901 718.264 331.638Q717.864 331.375 717.493 331.074Q717.122 330.772 716.784 330.434Q716.445 330.096 716.143 329.725Q715.84 329.355 715.577 328.956Q715.313 328.557 715.091 328.133Q714.87 327.709 714.692 327.265Q714.533 326.856 714.415 326.433Q714.298 326.01 714.222 325.578Q714.146 325.145 714.114 324.708Q714.081 324.27 714.091 323.831Q714.102 323.392 714.155 322.957Q714.209 322.521 714.305 322.093Q714.401 321.665 714.539 321.248Q714.677 320.831 714.855 320.43C716.206 317.319 718.503 315.82 721.525 314.557Z"/>
	<path fill="#9FBD60" d="M83.0946 454.16C91.6847 457.845 99.9867 462.238 108.27 466.559C147.761 487.158 195.974 518.817 220.774 556.747C208.343 563.384 199.601 571.686 195.401 585.458Q194.712 587.675 194.163 589.931C191.301 589.973 188.514 589.999 185.663 589.698C184.957 589.239 184.355 588.913 183.606 588.546C174.846 584.251 166.23 579.694 158.33 573.928C119.309 545.452 98.2927 498.51 83.0946 454.16Z"/>
	<path fill="#D4E09B" d="M193.651 687.165C194.592 697.395 195.767 706.956 201.77 715.697C203.45 718.143 206.404 720.378 207.681 722.926C208.549 724.125 209.284 725.123 210.489 726.021C210.672 726.104 210.86 726.179 211.039 726.272C214.572 728.099 217.812 730.741 221.451 732.61C231.732 737.889 244.149 737.368 255.315 736.276C259.048 735.911 264.425 734.599 267.98 735.277C264.892 737.686 262.573 740.87 260.145 743.914L257.837 746.9C252.315 750.363 247.367 756.582 242.508 761.029C238.946 764.289 235.051 767.033 231.388 770.145C225.932 773.087 220.527 776.496 215.491 780.115C209.508 782.467 204.151 786.755 198.178 789.344C173.679 799.964 148.693 804.823 122.047 805.538C131.425 766.527 160.454 710.783 193.651 687.165Z"/>
	<path fill="#F6F4D2" d="M207.681 722.926C208.549 724.125 209.284 725.123 210.489 726.021C197.892 741.53 183.217 755.535 168.84 769.365C160.942 776.962 153.156 785.052 144.449 791.716C147.752 787.594 151.677 783.821 155.324 779.989L176.781 757.622C187.484 746.445 197.473 734.555 207.681 722.926Z"/>
	<path fill="#D4E09B" d="M185.663 589.698C188.514 589.999 191.301 589.973 194.163 589.931C193.947 604.059 194.644 618.645 203.663 630.418C205.158 632.369 209.645 635.949 210.022 638.149C211.744 638.847 212.723 639.476 214.034 640.801L214.2 641.792C213.441 642.367 213.066 642.508 212.117 642.582C202.07 655.732 194.155 668.508 193.767 685.54C186.001 684.133 178.136 683.757 170.343 682.071C144.515 676.482 118.195 665.418 96.4123 650.415C87.3653 644.184 78.9385 636.896 70.818 629.516C77.2692 624.885 84.6262 621.034 91.6381 617.328C122.233 601.155 151.299 593.303 185.663 589.698Z"/>
	<path fill="#F6F4D2" d="M88.5756 630.223C129.104 631.365 169.539 636.047 210.022 638.149C211.744 638.847 212.723 639.476 214.034 640.801L214.2 641.792C213.441 642.367 213.066 642.508 212.117 642.582Q158.998 639.348 106.182 632.826C100.939 632.158 93.3578 632.236 88.5756 630.223Z"/>
	<path fill="#D4E09B" d="M693.993 217.527C699.858 182.445 720.691 152.606 749.31 132.097C762.836 122.404 778.186 114.736 793.514 108.355C799.797 143.737 804.029 182.958 796.059 218.429C792.905 232.466 787.867 245.706 782.56 259.045C779.774 259.905 773.765 260.506 771.062 259.318C766.067 257.122 764.99 250.904 763.278 246.313C759.769 236.899 753.574 232.17 744.761 228.07L740.282 226.892C728.23 225.439 717.447 226.322 707.574 234.061C705.254 235.879 702.75 239.448 700.155 240.487C698.639 232.588 696.573 225.136 693.993 217.527Z"/>
	<path fill="#F6F4D2" d="M779.579 134.708C775.326 147.663 769.807 160.155 764.701 172.786C757.42 190.799 750.272 209.446 744.761 228.07L740.282 226.892C747.664 202.37 757.35 178.973 768.45 155.913C771.854 148.84 775.063 141.143 779.579 134.708Z"/>
	<path fill="#D4E09B" d="M804.361 265.177C817.234 261.494 830.261 257.849 843.541 255.957C877.631 251.099 912.977 257.286 945.909 265.976C922.602 311.706 893.003 351.928 842.036 368.605C828.791 372.939 814.418 374.127 800.677 376.163C800.959 374.719 804.872 371.92 806.149 370.601Q807.498 369.189 808.693 367.644Q809.888 366.098 810.915 364.437Q811.942 362.776 812.791 361.017Q813.64 359.258 814.301 357.42C818.038 347.152 815.22 336.62 810.839 327.026C810.298 325.209 810.066 324.805 810.846 323.068C811.767 320.628 813.531 318.299 814.893 316.071Q815.555 314.999 816.141 313.884Q816.726 312.768 817.232 311.615Q817.738 310.461 818.161 309.274Q818.585 308.088 818.925 306.875Q819.264 305.662 819.518 304.428Q819.771 303.194 819.938 301.945Q820.104 300.696 820.183 299.439Q820.262 298.182 820.252 296.922C820.183 283.984 813.292 273.916 804.361 265.177Z"/>
	<path fill="#F6F4D2" d="M918.18 277.749C911.831 282.319 890.122 290.692 881.665 294.466C857.971 305.038 834.368 316.084 810.839 327.026C810.298 325.209 810.066 324.805 810.846 323.068C818.793 320.316 826.42 315.622 834.098 312.12Q859.646 300.747 885.524 290.147C896.098 285.789 907.144 280.638 918.18 277.749Z"/>
	<path fill="#3C6169" d="M841.056 421.695C845.537 422.245 850.645 424.518 855.137 425.625C857.632 426.626 860.106 427.619 862.516 428.818C869.799 434.256 877.644 438.793 884.779 444.481C908.651 463.51 926.685 490.128 931.119 520.743C935.776 552.894 927.18 589.28 907.548 615.208C874.079 659.412 817.788 679.12 764.665 686.235C745.87 688.752 727.4 689.904 708.445 690.113L708.516 873.887C720.248 882.909 732.474 891.285 744.568 899.813C751.507 904.707 758.819 909.42 765.151 915.087C743.865 916.388 722.161 914.988 700.815 915.087L556.505 915.51C556.584 907.662 555.77 894.937 556.855 887.818C558.178 887.155 559.256 887.157 560.694 887.127Q638.845 887.663 716.996 887.05C700.233 875.008 682.571 864.157 665.591 852.408C666.437 789.171 666.042 725.819 666.027 662.574C684.902 663.171 703.638 662.929 722.449 661.073C772.823 656.105 830.115 636.707 863.028 596.263C884.184 570.266 890.413 539.097 886.944 506.281C883.348 472.272 867.581 443.193 841.056 421.695Z"/>
	<path fill="#3C6169" d="M429.59 287.129C466.321 289.651 501.112 302.022 532.665 320.666C541.646 325.972 550.409 331.47 558.436 338.166C552.052 335.18 545.957 331.82 539.407 329.151C518.663 320.698 494.502 315.674 472.029 316.209L472.141 418.947C472.265 439.779 473.2 460.955 472.35 481.75C471.59 495.873 471.985 510.271 472.024 524.427C472.052 534.362 471.532 544.783 472.408 554.672Q472.349 560.852 472.417 567.032C472.453 585.929 471.895 605.022 472.602 623.894L472.32 710.386C472.047 736.93 467.859 751.623 487.967 772.259C500.302 784.916 517.867 792.263 531.595 803.416C522.409 804.519 512.843 804.027 503.591 804.019L459.589 803.988C415.738 804.018 371.706 804.869 327.873 803.986Q331.767 796.506 335.365 788.88C336.886 785.645 338.344 781.172 340.522 778.362L341.351 778.195C342.752 775.263 344.772 772.495 346.457 769.714C350.415 763.18 352.699 756.566 353.775 749.003C354.371 744.817 354.268 736.279 355.33 732.942C355.799 731.469 356.268 731.419 357.563 730.749C357.758 730.78 357.952 730.816 358.148 730.842C365.06 731.74 372.512 731.406 379.492 731.491C399.302 731.733 410.26 732.708 427.116 720.385C427.726 719.882 428.267 719.343 428.808 718.769Q429.693 717.828 430.53 716.845Q431.367 715.862 432.154 714.838Q432.941 713.814 433.677 712.753Q434.413 711.692 435.095 710.596Q435.777 709.499 436.404 708.37Q437.032 707.242 437.602 706.083Q438.173 704.925 438.685 703.74Q439.198 702.554 439.651 701.345Q440.104 700.136 440.497 698.906Q440.89 697.676 441.222 696.428Q441.553 695.18 441.822 693.917Q442.092 692.654 442.298 691.379Q442.505 690.104 442.648 688.821Q442.791 687.538 442.871 686.249Q442.95 684.96 442.966 683.669Q442.981 682.377 442.933 681.087C442.468 667.996 438.779 660.216 429.261 651.307C429.491 645.854 429.489 640.411 429.485 634.955C437.538 626.603 442.17 616.729 443.051 605.108C444.109 591.137 438.56 577.62 429.55 567.18L429.59 287.129Z"/>
	<path fill="#D4E09B" d="M357.563 730.749C357.758 730.78 357.952 730.816 358.148 730.842C365.06 731.74 372.512 731.406 379.492 731.491C399.302 731.733 410.26 732.708 427.116 720.385C434.41 743.024 453.896 762.799 474.797 773.488C479.479 775.884 484.043 777.606 489.137 778.899C467.933 779.456 446.542 778.437 425.306 778.433L371.385 778.382C361.389 778.366 351.338 778.59 341.351 778.195C342.752 775.263 344.772 772.495 346.457 769.714C350.415 763.18 352.699 756.566 353.775 749.003C354.371 744.817 354.268 736.279 355.33 732.942C355.799 731.469 356.268 731.419 357.563 730.749Z"/>
	<path fill="#FFA69E" d="M301.597 508.688C313.735 505.327 326.831 505.84 338.101 511.871C347.522 516.636 354.807 526.123 358.134 536.105C360.072 541.922 360.55 553.254 362.669 557.581C363.282 558.833 364.147 559.701 365.335 560.403C374.75 553.3 388.837 550.532 400.395 552.103C411.876 553.664 421.348 559.185 429.55 567.18C438.56 577.62 444.109 591.137 443.051 605.108C442.17 616.729 437.538 626.603 429.485 634.955C429.489 640.411 429.491 645.854 429.261 651.307C438.779 660.216 442.468 667.996 442.933 681.087Q442.981 682.377 442.966 683.669Q442.95 684.96 442.871 686.249Q442.791 687.537 442.648 688.821Q442.505 690.104 442.298 691.379Q442.092 692.654 441.822 693.917Q441.553 695.18 441.222 696.428Q440.89 697.676 440.497 698.906Q440.104 700.136 439.651 701.345Q439.198 702.554 438.685 703.74Q438.173 704.925 437.602 706.083Q437.032 707.242 436.404 708.37Q435.777 709.499 435.095 710.596Q434.413 711.692 433.677 712.753Q432.941 713.814 432.154 714.838Q431.367 715.862 430.53 716.845Q429.693 717.828 428.808 718.769C428.267 719.343 427.726 719.882 427.116 720.385C410.26 732.708 399.302 731.733 379.492 731.491C372.512 731.406 365.06 731.74 358.148 730.842C357.952 730.816 357.758 730.78 357.563 730.749C356.268 731.419 355.799 731.469 355.33 732.942C354.268 736.279 354.371 744.817 353.775 749.003C352.699 756.566 350.415 763.18 346.457 769.714C344.772 772.495 342.752 775.263 341.351 778.195L340.522 778.362C339.37 778.099 338.084 777.772 336.916 778.108C329.423 780.266 325.408 784.469 316.573 785.157C308.515 785.784 299.08 783.852 292.433 779.115C288.597 776.381 285.381 772.882 281.806 769.834C273.762 764.969 269.816 759.192 265.791 750.882C264.887 749.017 264.22 746.821 263.157 745.078C263.078 744.95 262.987 744.829 262.902 744.704L260.145 743.914C262.573 740.87 264.892 737.686 267.98 735.277C264.425 734.599 259.048 735.911 255.315 736.276C244.149 737.368 231.732 737.889 221.451 732.61C217.812 730.741 214.572 728.099 211.039 726.272C210.86 726.179 210.672 726.104 210.489 726.021C209.284 725.123 208.549 724.125 207.681 722.926C206.404 720.378 203.45 718.143 201.77 715.697C195.767 706.956 194.592 697.395 193.651 687.165L193.767 685.54C194.155 668.508 202.07 655.732 212.117 642.582C213.066 642.508 213.441 642.367 214.2 641.792L214.034 640.801C212.723 639.476 211.744 638.847 210.022 638.149C209.645 635.949 205.158 632.369 203.663 630.418C194.644 618.645 193.947 604.059 194.163 589.931Q194.712 587.675 195.401 585.458C199.601 571.686 208.343 563.384 220.774 556.747C228.582 553.848 236.98 553.264 245.234 553.651C254.019 554.926 261.27 555.702 269.59 559.357C271.012 544.918 270.583 536.154 280.512 524.3C282.513 521.911 285.13 520.076 287.074 517.659L287.632 516.954C289.616 516.465 291.392 514.562 292.956 513.266C295.74 511.593 298.719 510.197 301.597 508.688Z"/>
	<path fill="#9FBD60" d="M429.485 634.955C429.489 640.411 429.491 645.854 429.261 651.307C423.848 648.11 418.646 645.402 412.682 643.35C419 641.226 424.067 638.896 429.485 634.955Z"/>
	<path fill="#3C6169" d="M267.98 735.277L269.465 734.794C269.873 736.304 268.452 738.565 267.929 740.138C269.299 741.465 270.641 742.873 272.116 744.083C273.48 753.671 276.018 761.957 281.806 769.834C273.762 764.969 269.816 759.192 265.791 750.882C264.887 749.017 264.22 746.821 263.157 745.078C263.078 744.95 262.987 744.829 262.902 744.704L260.145 743.914C262.573 740.87 264.892 737.686 267.98 735.277Z"/>
	<path fill="#F6F4D2" d="M298.447 609.581C295.792 599.689 293.855 588.671 295.795 578.469C297.395 570.051 301.806 561.713 309.131 556.955C314.03 553.773 320.089 552.461 325.81 553.867C332.037 555.398 336.781 559.969 339.876 565.42C347.106 578.156 344.851 593.524 341.046 606.871Q345.288 603.126 349.492 599.337C358.784 592.625 369.447 585.89 381.459 587.711C387.593 588.641 393.567 591.739 397.208 596.861Q397.513 597.29 397.796 597.735Q398.079 598.179 398.339 598.637Q398.599 599.094 398.836 599.565Q399.072 600.035 399.285 600.517Q399.498 600.998 399.686 601.49Q399.875 601.982 400.038 602.482Q400.201 602.983 400.339 603.491Q400.477 603.999 400.589 604.514Q400.702 605.028 400.788 605.547Q400.874 606.067 400.934 606.59Q400.994 607.113 401.028 607.639Q401.061 608.164 401.068 608.691Q401.075 609.217 401.056 609.743Q401.036 610.27 400.991 610.794Q400.945 611.319 400.873 611.84Q400.8 612.362 400.702 612.879C398.984 621.978 392.007 629.588 384.482 634.525C377.395 639.174 369.567 641.415 361.469 643.549C374.964 646.307 389.337 651.51 397.355 663.479C400.817 668.646 402.33 674.62 401.182 680.782C400.077 686.715 396.887 691.956 391.875 695.363C386.47 699.038 380.208 700.271 373.816 699.038C360.214 696.414 349.357 686.357 340.688 676.195C341.609 678.916 342.664 681.663 343.42 684.431C344.358 691.117 345.043 697.646 344.002 704.372C342.681 712.908 338.505 722.4 331.229 727.478Q330.779 727.785 330.315 728.069Q329.851 728.353 329.372 728.613Q328.894 728.873 328.403 729.109Q327.913 729.345 327.41 729.555Q326.908 729.766 326.396 729.951Q325.884 730.136 325.364 730.294Q324.843 730.453 324.315 730.586Q323.787 730.718 323.252 730.823Q322.718 730.929 322.179 731.007Q321.641 731.085 321.099 731.136Q320.557 731.187 320.013 731.21Q319.469 731.234 318.924 731.229Q318.38 731.225 317.836 731.194Q317.293 731.162 316.752 731.103Q316.211 731.044 315.673 730.958Q315.135 730.871 314.603 730.758C308.602 729.464 303.904 725.438 300.606 720.392C291.91 707.085 294.166 690.009 297.396 675.392C290.144 684.311 281.504 694.568 270.447 698.691C263.286 701.362 255.307 702.054 248.249 698.616C242.94 696.03 238.671 691.51 236.784 685.876Q236.605 685.326 236.454 684.767Q236.303 684.208 236.179 683.643Q236.056 683.078 235.962 682.507Q235.867 681.936 235.801 681.361Q235.736 680.786 235.699 680.209Q235.662 679.631 235.654 679.052Q235.646 678.474 235.666 677.896Q235.687 677.317 235.737 676.741Q235.787 676.164 235.866 675.591Q235.945 675.018 236.052 674.449Q236.159 673.88 236.295 673.318Q236.431 672.755 236.594 672.2Q236.758 671.645 236.949 671.099Q237.14 670.553 237.359 670.017Q237.577 669.481 237.822 668.957Q238.067 668.432 238.338 667.921C245.925 653.395 263.949 647.778 278.532 643.424C265.804 640.617 253.148 636.071 243.987 626.312C239.216 621.23 236.153 614.806 236.574 607.713C236.908 602.081 239.51 596.557 243.866 592.932C248.925 588.724 255.703 587.301 262.147 587.797C276.108 588.871 289.649 599.312 298.447 609.581Z"/>
	<path fill="#D4E09B" d="M317.305 618.125C322.143 617.739 326.827 618.633 330.991 621.229Q331.483 621.535 331.958 621.866Q332.434 622.196 332.892 622.551Q333.349 622.907 333.788 623.285Q334.227 623.663 334.645 624.064Q335.063 624.464 335.46 624.886Q335.858 625.308 336.232 625.75Q336.607 626.192 336.958 626.652Q337.309 627.113 337.636 627.591Q337.963 628.069 338.265 628.564Q338.566 629.058 338.842 629.568Q339.117 630.077 339.366 630.6Q339.615 631.124 339.836 631.659Q340.057 632.194 340.25 632.74Q340.444 633.286 340.608 633.842Q340.773 634.397 340.908 634.96Q341.044 635.524 341.15 636.093C342.369 642.447 340.763 649.173 337.089 654.466C332.913 660.484 327.273 663.216 320.267 664.463C314.491 664.679 309.14 663.687 304.34 660.276C299.543 656.869 296.518 651.78 295.66 645.975C294.727 639.672 295.942 632.802 299.812 627.647C304.153 621.864 310.377 619.221 317.305 618.125Z"/>
	<path fill="#D4E09B" d="M579.128 116.724C587.579 119.564 595.856 122.638 604.009 126.255C645.579 144.697 676.283 174.102 692.825 216.906L693.993 217.527C696.573 225.136 698.639 232.588 700.155 240.487L699.545 242.554L699.285 242.938C696.907 246.489 694.877 252.336 691.048 254.435C688.02 254.811 685.007 253.628 682.13 252.794C672.746 250.074 664.157 252.217 655.784 256.933L650.337 260.083C641.586 267.371 635.211 275.625 634.112 287.313C633.499 293.846 634.758 300.504 636.355 306.823C621.252 296.25 609.011 281.603 597.411 267.455Q598.299 316.207 598.35 364.968L593.07 366.107C586.346 360.858 579.585 355.685 573.043 350.207C568.332 346.262 563.599 341.452 558.436 338.166C550.409 331.47 541.646 325.972 532.665 320.666C501.112 302.022 466.321 289.651 429.59 287.129L429.55 567.18C421.348 559.185 411.876 553.664 400.395 552.103C388.837 550.532 374.75 553.3 365.335 560.403C364.147 559.701 363.282 558.833 362.669 557.581C360.55 553.254 360.072 541.922 358.134 536.105C354.807 526.123 347.522 516.636 338.101 511.871C326.831 505.84 313.735 505.327 301.597 508.688C298.719 510.197 295.74 511.593 292.956 513.266C291.392 514.562 289.616 516.465 287.632 516.954L287.074 517.659C285.13 520.076 282.513 521.911 280.512 524.3C270.583 536.154 271.012 544.918 269.59 559.357C261.27 555.702 254.019 554.926 245.234 553.651C246.638 553.659 248.068 553.761 249.441 553.425C248.201 548.907 246.668 544.48 245.176 540.041C245.69 535.933 242.921 528.555 242.276 524.175C240.404 511.452 240.143 499.152 241.874 486.39C248.101 440.462 278.549 390.193 315.345 362.069Q323.875 378.764 331.073 396.074C333.744 402.618 335.595 409.709 338.843 415.987C339.209 405.467 338.945 394.842 338.963 384.309Q338.906 350.643 339.279 316.981C339.126 317.053 338.976 317.134 338.819 317.198C335.911 318.367 332.243 318.663 329.171 319.515Q318.492 322.551 308.042 326.303C272.827 339.026 246.262 357.163 217.891 381.126C209.745 376.146 201.361 371.648 193 367.045C189.208 364.958 185.133 362.223 181.104 360.703C180.32 359.626 180.268 358.695 180.176 357.41C179.423 346.975 180.066 335.989 180.051 325.51L180.082 257.139C317.172 258.024 454.305 255.797 591.386 257.279C585.949 247.349 581.76 236.532 578.302 225.765C569.567 198.571 568.646 169.44 572.708 141.327C573.909 133.013 575.265 124.256 579.128 116.724Z"/>
	<path fill="#546B62" d="M692.825 216.906L693.993 217.527C696.573 225.136 698.639 232.588 700.155 240.487L699.545 242.554C695.962 238.696 694.373 222.786 692.825 216.906Z"/>
	<path fill="#F6F4D2" d="M287.632 516.954C288.315 486.173 293.58 455.377 300.413 425.422C301.695 419.804 303.928 414.455 305.172 408.88C305.384 407.931 305.334 407.722 305.986 406.984C306.243 411.281 302.929 423.871 301.95 429.032Q298.663 445.771 296.379 462.677C295.226 471.795 294.235 481.078 293.837 490.26C293.506 497.909 293.789 505.654 292.956 513.266C291.392 514.562 289.616 516.465 287.632 516.954Z"/>
	<path fill="#88A24E" d="M301.597 508.688C312.106 497.788 324.976 491.432 338.623 485.39C338.345 492.242 339.641 506.205 338.101 511.871C326.831 505.84 313.735 505.327 301.597 508.688Z"/>
	<path fill="#F6F4D2" d="M650.337 260.083C648.16 251.345 643.231 242.144 639.628 233.868C628.885 209.187 617.411 184.577 604.419 160.985C601.325 155.367 597.817 150.002 594.599 144.459C607.512 156.472 632.692 204.415 640.813 222.058C646.104 233.552 650.445 245.47 655.784 256.933L650.337 260.083Z"/>
	<path fill="#3C6169" d="M181.104 360.703C185.021 358.068 188.537 354.227 191.99 351.013C197.88 345.531 203.791 340.06 210.046 334.991C235.883 314.054 258.148 301.895 290.793 293.858Q296.742 292.332 302.767 291.134Q308.791 289.936 314.871 289.07Q320.952 288.203 327.071 287.671Q333.19 287.139 339.329 286.943L339.279 316.981C339.126 317.053 338.976 317.134 338.819 317.198C335.911 318.367 332.243 318.663 329.171 319.515Q318.492 322.551 308.042 326.303C272.827 339.026 246.262 357.163 217.891 381.126C209.745 376.146 201.361 371.648 193 367.045C189.208 364.958 185.133 362.223 181.104 360.703Z"/>
	<path fill="#D4E09B" d="M597.411 267.455C609.011 281.603 621.252 296.25 636.355 306.823C640.808 310.943 647.843 316.784 648.214 323.248C648.397 326.447 647.074 329.625 646.046 332.6C642.658 342.407 642.197 349.939 644.87 359.968C645.521 361.6 646.399 363.303 646.339 365.084L648.426 370.167C654.276 380.179 661.659 388.414 673.227 391.484C679.588 393.171 685.996 393.09 692.499 392.518C697.754 396.154 698.637 400.941 702.433 405.522C705.956 409.772 711.144 412.931 715.639 416.074C722.319 418.499 728.655 418.664 734.456 420.643C736.202 418.742 740.906 418.549 743.392 417.806C758.37 413.328 767.227 399.987 774.37 387.088C777.051 386.926 779.592 386.484 782.214 387.207C782.572 388.079 782.609 388.482 782.643 389.4C784.265 391.604 787.97 392.512 790.487 393.49C797.243 396.455 803.822 399.942 810.429 403.224C816.374 406.178 822.526 408.985 828.22 412.404C832.744 415.121 836.502 419.254 841.056 421.695C867.581 443.193 883.348 472.272 886.944 506.281C890.413 539.097 884.184 570.266 863.028 596.263C830.115 636.707 772.823 656.105 722.449 661.073C703.638 662.929 684.902 663.171 666.027 662.574C666.042 725.819 666.437 789.171 665.591 852.408C682.571 864.157 700.233 875.008 716.996 887.05Q638.845 887.663 560.694 887.127Q538.058 887.264 515.424 886.958C533.629 872.514 555.081 862.209 574.258 849.17C573.199 814.454 574.089 779.517 574.185 744.777L574.02 590.308C546.006 590.686 519.648 586.53 493.51 576.293C486.36 573.493 479.452 570.107 472.417 567.032Q472.349 560.852 472.408 554.672C471.532 544.783 472.052 534.362 472.024 524.427C471.985 510.271 471.59 495.873 472.35 481.75C473.2 460.955 472.265 439.779 472.141 418.947L472.029 316.209C494.502 315.674 518.663 320.698 539.407 329.151C545.957 331.82 552.052 335.18 558.436 338.166C563.599 341.452 568.332 346.262 573.043 350.207C579.585 355.685 586.346 360.858 593.07 366.107L598.35 364.968Q598.299 316.207 597.411 267.455Z"/>
	<path fill="#D4E09B" d="M644.87 359.968C645.521 361.6 646.399 363.303 646.339 365.084L648.426 370.167C630.552 393.643 609.814 413.571 579.245 417.856Q576.475 418.23 573.695 418.519L573.224 418.058C570.732 418.565 568.22 418.915 565.705 419.282C570.019 406.163 574.013 392.968 581.641 381.322C584.535 377.047 588.185 373.676 591.863 370.101C596.36 369.237 600.768 366.374 605.258 365.152C618.134 361.649 631.58 360.41 644.87 359.968Z"/>
	<path fill="#88A24E" d="M646.339 365.084L648.426 370.167C630.552 393.643 609.814 413.571 579.245 417.856Q576.475 418.23 573.695 418.519L573.224 418.058C608.658 407.413 623.147 391.918 646.339 365.084Z"/>
	<path fill="#3C6169" d="M715.639 416.074C722.319 418.499 728.655 418.664 734.456 420.643C744.691 426.779 758.526 436.826 765.886 446.204Q737.416 445.993 708.946 446.155Q708.149 535.368 708.936 624.579C694.746 626.719 680.814 627.232 666.481 627.434L666.506 416.566C682.817 416.595 699.357 416.951 715.639 416.074Z"/>
	<path fill="#F19C79" d="M765.886 446.204C769.04 449.448 771.297 454.48 773.363 458.531Q774.394 460.538 775.364 462.576Q776.333 464.614 777.239 466.681Q778.146 468.747 778.989 470.841Q779.832 472.934 780.61 475.052Q781.388 477.17 782.102 479.311Q782.815 481.452 783.462 483.614Q784.11 485.776 784.691 487.957Q785.272 490.137 785.786 492.334Q786.3 494.532 786.746 496.744Q787.193 498.956 787.572 501.181Q787.95 503.405 788.261 505.641Q788.571 507.876 788.813 510.12Q789.055 512.363 789.228 514.613Q789.401 516.863 789.505 519.117Q789.609 521.372 789.645 523.628Q789.68 525.885 789.646 528.141C789.31 554.264 781.579 580.841 762.557 599.492C747.377 614.375 729.391 620.639 708.936 624.579Q708.15 535.366 708.946 446.155Q737.416 445.993 765.886 446.204Z"/>
	<path fill="#9FBD60" d="M472.35 481.75C506.243 475.32 544.786 484.558 573.491 503.088C596.592 518.786 617.261 537.189 631.905 561.261C634.256 565.127 637.602 570.17 638.621 574.602C638.757 575.19 638.737 575.008 638.509 575.555C617.147 583.59 596.937 589.32 574.02 590.308C546.006 590.686 519.648 586.53 493.51 576.293C486.36 573.493 479.452 570.107 472.417 567.032Q472.349 560.852 472.408 554.672C471.532 544.783 472.052 534.362 472.024 524.427C471.985 510.271 471.59 495.873 472.35 481.75Z"/>
	<path fill="#88A24E" d="M472.35 481.75C506.243 475.32 544.786 484.558 573.491 503.088C596.592 518.786 617.261 537.189 631.905 561.261C634.256 565.127 637.602 570.17 638.621 574.602C638.757 575.19 638.737 575.008 638.509 575.555C634.571 573.469 630.9 568.986 627.29 566.165C620.276 560.685 612.841 555.532 605.44 550.592C577.299 531.807 542.474 517.875 509.074 512.591C496.92 510.668 484.693 510.062 472.408 509.744C472.517 524.548 473.451 539.92 472.408 554.672C471.532 544.783 472.052 534.362 472.024 524.427C471.985 510.271 471.59 495.873 472.35 481.75Z"/>
	<path fill="#F19C79" d="M597.411 267.455C609.011 281.603 621.252 296.25 636.355 306.823C640.808 310.943 647.843 316.784 648.214 323.248C648.397 326.447 647.074 329.625 646.046 332.6C642.658 342.407 642.197 349.939 644.87 359.968C631.58 360.41 618.134 361.649 605.258 365.152C600.768 366.374 596.36 369.237 591.863 370.101C588.185 373.676 584.535 377.047 581.641 381.322C574.013 392.968 570.019 406.163 565.705 419.282C568.22 418.915 570.732 418.565 573.224 418.058L573.695 418.519C572.603 446.183 573.438 475.253 573.491 503.088C544.786 484.558 506.243 475.32 472.35 481.75C473.2 460.955 472.265 439.779 472.141 418.947L472.029 316.209C494.502 315.674 518.663 320.698 539.407 329.151C545.957 331.82 552.052 335.18 558.436 338.166C563.599 341.452 568.332 346.262 573.043 350.207C579.585 355.685 586.346 360.858 593.07 366.107L598.35 364.968Q598.299 316.207 597.411 267.455Z"/>
	<path fill="#F6F4D2" d="M517.604 342.14C521.784 342.057 525.588 343.09 529.154 345.306C534.71 348.757 539.359 354.829 540.705 361.288C541.328 364.274 541.143 367.502 539.353 370.069C536.663 373.926 532.651 374.355 528.375 374.982C523.799 375.139 519.754 373.962 515.846 371.579C510.54 368.343 506.006 362.997 504.723 356.808C504.095 353.774 504.356 350.495 506.132 347.876C508.78 343.97 513.233 342.861 517.604 342.14Z"/>
	<path fill="#F6F4D2" d="M510.101 377.686C514.289 377.251 519.304 377.901 522.874 380.243C525.539 381.992 527.22 384.716 527.753 387.844C528.429 391.813 527.154 395.517 524.803 398.701C520.499 404.531 514.116 407.74 507.121 408.883C503.242 409.358 498.265 407.991 495.049 405.798C491.794 403.578 489.701 400.255 489.138 396.352C488.588 392.541 489.753 388.74 492.101 385.725C496.536 380.03 503.317 378.41 510.101 377.686Z"/>
	<path fill="#F6F4D2" d="M538.494 404.121C541.251 403.972 544.081 404.933 546.478 406.239C550.715 408.547 553.804 412.899 554.964 417.549C556.309 422.942 555.085 429.044 552.082 433.683C548.896 438.603 544.818 440.478 539.313 441.634C535.57 441.672 532.053 441.37 528.748 439.45C524.918 437.226 522.439 433.447 521.432 429.177C520.112 423.58 521.471 417.612 524.617 412.856C527.977 407.777 532.635 405.253 538.494 404.121Z"/>
	<path fill="#3C6169" d="M597.411 267.455C609.011 281.603 621.252 296.25 636.355 306.823C640.808 310.943 647.843 316.784 648.214 323.248C648.397 326.447 647.074 329.625 646.046 332.6C642.658 342.407 642.197 349.939 644.87 359.968C631.58 360.41 618.134 361.649 605.258 365.152C600.768 366.374 596.36 369.237 591.863 370.101C587.163 371.338 582.567 373.042 577.968 374.609C569.561 378.275 559.83 379.932 552.197 385.193C549.118 387.314 544.341 394.031 543.922 394.26L543.669 393.335C544.758 389.894 546.939 387.054 549.049 384.176C544.648 385.257 534.494 388.782 530.661 387.862C529.659 387.621 530.041 387.802 529.415 386.803C529.545 386.561 529.603 386.262 529.806 386.076C530.298 385.627 555.057 378.122 558.642 376.719C552.328 374.6 547.518 372.493 543.541 366.944C551.189 369.534 559.059 371.408 566.825 373.612C574.975 371.591 582.881 368.681 591.046 366.755L593.07 366.107L598.35 364.968Q598.299 316.207 597.411 267.455Z"/>
	<path fill="#FFA69E" d="M600.291 304.043C605.095 304.408 609.696 305.129 614.244 306.782C624.621 310.555 632.489 318.292 637.131 328.246C639.192 332.666 641.87 338.931 640.105 343.753Q637.971 344.388 635.751 344.556C627.572 345.126 620.144 341.002 614.334 335.602C605.376 327.275 600.689 316.178 600.291 304.043Z"/>
</svg>
